SubjTestrun_81
version=1
nRows=57
nColumns=19
inDegrees=no
endheader
time	l_ground_force_vx	l_ground_force_vy	l_ground_force_vz	l_ground_force_px	l_ground_force_py	l_ground_force_pz	ground_force_vx	ground_force_vy	ground_force_vz	ground_force_px	ground_force_py	ground_force_pz	l_ground_torque_x	l_ground_torque_y	l_ground_torque_z	ground_torque_x	ground_torque_y	ground_torque_z	
43.78	0	0	0	0	0	0	0	0	0	0	0	0	0	0	0	0	0	0
43.79	0	0	0	0	0	0	0	0	0	0	0	0	0	0	0	0	0	0
43.8	0	0	0	0	0	0	0	0	0	0	0	0	0	0	0	0	0	0
43.81	0	0	0	0	0	0	0	0	0	0	0	0	0	0	0	0	0	0
43.82	0	0	0	0	0	0	0	0	0	0	0	0	0	0	0	0	0	0
43.83	0	0	0	0	0	0	0	0	0	0	0	0	0	0	0	0	0	0
43.84	-18.3056907073498	58.0972015664082	19.8208085244499	0.0454497491763038	0	0.00924672623794284	0	0	0	0	0	0	0	-20.2349069243602	0	0	0	0
43.85	-21.3009742468873	148.751823905486	29.1595495723452	0.00740723283757218	0	-0.00580354103608831	0	0	0	0	0	0	0	-20.2641294997962	0	0	0	0
43.86	-16.1694798897655	285.556273508723	41.3801584564801	0.00293629372061097	0	-0.0126030742729	0.510403625669137	45.4260406222727	-14.469678146411	-0.107908271349598	0	-0.0811655283303271	0	-8.71355646317745	0	0	-2.4280361942315	0
43.87	-11.8401942591852	442.331279251643	52.6162795444236	0.00483862680694241	0	-0.0163546150354329	-4.27410880542951	107.789432067906	-18.0752864895971	-0.055491042632606	0	-0.025204870142222	0	1.97843939218375	0	0	-1.23552397470161	0
43.88	-16.267840180434	567.497009965503	56.4743907922719	0.00739126172370767	0	-0.0182826967584724	-11.6979708460003	182.216106638858	-23.6751817290911	-0.0274327970708244	0	-0.0042416878336887	0	0.387278853251284	0	0	-0.0144137778613914	0
43.89	-27.9207113391067	645.844937046668	56.0317291212143	0.00880651887864161	0	-0.0197925154508399	-22.5110883099062	247.084813735902	-28.4490779280964	-0.0092309200238597	0	0.00594578487168544	0	-11.8572901215586	0	0	0.782099409550967	0
43.9	-43.3812995499568	703.443235686592	59.8823194000171	0.00702933987770712	0	-0.0218842503311161	-38.294910855774	296.991146148948	-27.8223402429812	0.00174990183813363	0	0.0127564687871033	0	-29.6047978695664	0	0	0.647566732699245	0
43.91	-54.3888097346997	759.676452636798	65.477155520385	0.000589885253173232	0	-0.0239914055258597	-54.6335586648312	336.541236725752	-24.3489077515939	0.00443531281310113	0	0.0169950759080579	0	-40.787160523121	0	0	-0.200164831612027	0
43.92	-57.0676420332754	818.914337609543	70.7768957908963	-0.0112715081789759	0	-0.025303114052154	-66.9076312078165	371.397577225419	-20.8232564913621	-0.00216176807680656	0	0.0187315102756995	0	-40.2234426471607	0	0	-1.47926473712168	0
43.93	-50.0778286514414	873.940009842466	73.754484121421	-0.0276138434627314	0	-0.0254075177276181	-72.4881196424997	403.366272483804	-18.9036666432843	-0.0167038889567776	0	0.0182369993894911	0	-26.8297218428451	0	0	-2.86903318727176	0
43.94	-34.9143905044528	916.60460494303	74.1185039529495	-0.0471071316997836	0	-0.0245570757258806	-71.0239009503832	430.84387797573	-18.9854680909653	-0.0365959860009091	0	0.0163561927130731	0	-3.46351175359168	0	0	-3.87049373827403	0
43.95	-14.7571305444822	941.639524381417	73.2100774530526	-0.0684584883673539	0	-0.0233097717156992	-61.4920640960731	452.158539098934	-19.8858678267507	-0.0580193070510184	0	0.0143659119298554	0	25.0587024333418	0	0	-3.95748144049279	0
43.96	7.94362844549665	946.678936118417	71.7836137713465	-0.090112135959742	0	-0.0221225750453442	-44.5573836805055	466.214723201627	-21.2497188464171	-0.0772931167390985	0	0.01302672228714	0	55.4952396827258	0	0	-2.93772868690521	0
43.97	32.0062909187741	931.09922886094	70.7859311625065	-0.110291153968752	0	-0.0214140497676586	-25.039557877641	472.70678865243	-22.7594858042918	-0.0927508116653555	0	0.0128836258694878	0	86.3840394735688	0	0	-1.26692201807667	0
43.98	54.7119340764312	895.060246909217	69.575791506899	-0.127906506859821	0	-0.0214142618909868	-7.05168159502078	472.574684116036	-24.9073411004771	-0.104848976387908	0	0.0139432869286516	0	114.344734788625	0	0	0.303115406371355	0
43.99	71.1415866255722	841.041462148008	67.6157514757678	-0.142903144654671	0	-0.0221279850146141	9.39601917098887	467.00709610116	-27.6852896043176	-0.114990917396625	0	0.0159660874247262	0	133.295316701667	0	0	1.15778790770034	0
44	79.1862604837319	772.413376088795	65.0017836484473	-0.155741452869995	0	-0.0233621567765277	24.2621976569178	455.630794145956	-30.703569954112	-0.125214026042942	0	0.0182615233166181	0	141.120769558681	0	0	0.92736526716691	0
44.01	80.7563807189334	691.771329568886	61.8843299843811	-0.16733587378091	0	-0.024720968949704	35.6444869346557	436.615263812837	-33.902401258837	-0.138210292712977	0	0.0199538610098803	0	140.728528822649	0	0	-0.425072927784246	0
44.02	77.6665430203726	601.354010048516	58.6510189654621	-0.179632432722336	0	-0.0256040837028347	43.9121086747405	407.775361307149	-37.0640338180929	-0.156326996872109	0	0.0200647073254694	0	134.378760365318	0	0	-2.35655667857489	0
44.03	70.7523396014923	504.214096411005	55.9642518133241	-0.195430977519553	0	-0.0253530556521906	51.8649026808941	368.31065993216	-39.6838072233662	-0.180060683137864	0	0.0179420534173116	0	122.833580294979	0	0	-4.17994377746551	0
44.04	61.9673858082467	404.798879620858	53.7729188410462	-0.217228476072907	0	-0.0231906137294827	59.9614127422348	319.673863012938	-41.3419960217092	-0.208491572138539	0	0.0133935241616183	0	108.390228393893	0	0	-5.48669437439573	0
44.05	55.0324940425935	309.005409686594	51.1620975623123	-0.24622288203629	0	-0.0185468114717363	65.9383403260338	265.519260005398	-41.6771691013469	-0.240079008024902	0	0.00673204680166006	0	95.5766914275193	0	0	-5.96784123388831	0
44.06	51.1968771226509	223.224521800169	47.6706764356796	-0.282906701951437	0	-0.0109514616495412	68.3793416158269	210.649679889663	-40.5533022126606	-0.271095178460163	0	-0.00131358406594364	0	86.0183736953406	0	0	-5.456941319242	0
44.07	48.7981984213406	152.598605668202	43.1535340949836	-0.326646228328064	0	-0.000397149604547651	67.7883827630016	159.88853526765	-37.9844469450082	-0.293585045776108	0	-0.00938902038421475	0	77.822372638951	0	0	-4.14533842930291	0
44.08	45.5394927098791	99.422816655395	37.6211178555504	-0.369235487995613	0	0.0125446323806557	63.9868391271939	116.568861710647	-34.0334578913175	-0.29504823024296	0	-0.015717541136408	0	68.6240976849548	0	0	-2.67563093203391	0
44.09	40.8873282767545	63.2977430485603	31.25242376646	-0.383417769644891	0	0.024942241629218	55.8494128140409	81.6799957612671	-28.9425535349523	-0.261902711185688	0	-0.0184000623655322	0	58.460722287271	0	0	-1.52795405064248	0
44.1	34.8046655628477	41.4585018895687	24.8873618138569	-0.32423559124057	0	0.030034087465652	43.6065846736534	54.3398739979226	-23.4345413873674	-0.182015409922136	0	-0.0173585156929148	0	47.9085470250163	0	0	-1.12898526424782	0
44.11	26.5797468421399	29.3044803446211	19.5337575706911	-0.183478567151949	0	0.0243278901101613	29.3960542166321	33.2891929532862	-18.434934400295	-0.0467380577972442	0	-0.0175417419284766	0	36.0542779744682	0	0	-1.63842686398434	0
44.12	16.3908418711562	21.6589493054535	15.6738618380921	-0.0320778780996716	0	0.0231589968033077	0	0	0	0	0	0	0	22.7474851509262	0	0	0	0
44.13	0	0	0	0	0	0	0	0	0	0	0	0	0	0	0	0	0	0
44.14	0	0	0	0	0	0	0	0	0	0	0	0	0	0	0	0	0	0
44.15	0	0	0	0	0	0	0	0	0	0	0	0	0	0	0	0	0	0
44.16	0	0	0	0	0	0	0	0	0	0	0	0	0	0	0	0	0	0
44.17	0	0	0	0	0	0	0	0	0	0	0	0	0	0	0	0	0	0
44.18	0	0	0	0	0	0	0	0	0	0	0	0	0	0	0	0	0	0
44.19	0	0	0	0	0	0	0	0	0	0	0	0	0	0	0	0	0	0
44.2	0	0	0	0	0	0	0	0	0	0	0	0	0	0	0	0	0	0
44.21	0	0	0	0	0	0	0	0	0	0	0	0	0	0	0	0	0	0
44.22	0	0	0	0	0	0	-4.65752647205388	43.9991681884153	-19.0111665340435	0.104882662438024	0	0.0778272112586774	0	0	0	0	-2.54624061843629	0
44.23	0	0	0	0	0	0	-11.7156434394163	141.266380133711	-26.8218356081615	0.0113579778666665	0	0.0939115024272615	0	0	0	0	-2.77941015456475	0
44.24	0	0	0	0	0	0	-14.3813852055201	302.336714542751	-35.2598643753589	-0.00690242466108625	0	0.0971455698066978	0	0	0	0	-1.11575712896399	0
44.25	0	0	0	0	0	0	-20.5694985538941	508.464005839205	-40.0306092618049	-0.01081397782294	0	0.0983330589408341	0	0	0	0	1.41015393431233	0
44.26	0	0	0	0	0	0	-36.9884875519947	698.599855788655	-35.9643372134154	-0.0109816723817029	0	0.0987401052252894	0	0	0	0	2.63152274476498	0
44.27	0	0	0	0	0	0	-62.3369792645527	835.656739032606	-29.3309964277954	-0.0106504878292056	0	0.0992266412228989	0	0	0	0	1.98812231492041	0
44.28	0	0	0	0	0	0	-90.9221160996385	937.341277118366	-32.164005039855	-0.0122783542747103	0	0.100320286139557	0	0	0	0	0.374735467657223	0
44.29	0	0	0	0	0	0	-110.687086019952	1032.4048786821	-43.9225861857357	-0.0178024504181896	0	0.102058439091902	0	0	0	0	-0.930094689206642	0
44.3	0	0	0	0	0	0	-115.663353355675	1136.11677509088	-61.1277079706738	-0.0280627279808118	0	0.103847157672654	0	0	0	0	-1.16213038934007	0
44.31	0	0	0	0	0	0	-106.516660579381	1244.40513834244	-77.9241224316091	-0.0421862269722377	0	0.105143547210798	0	0	0	0	-0.221312334171231	0
44.32	0	0	0	0	0	0	-88.3720586965973	1340.14729369583	-89.0968043685618	-0.058692004168243	0	0.105787063117405	0	0	0	0	1.71712735688542	0
44.33	0	0	0	0	0	0	-66.1250478991148	1404.01398311404	-92.8621495320584	-0.0764533342111571	0	0.105836074763252	0	0	0	0	4.25237539768967	0
44.34	0	0	0	0	0	0	-41.2525135175222	1426.33662884521	-91.0912662564721	-0.0948886068658894	0	0.105501428497451	0	0	0	0	6.85765987726907	0
